<?xml version="1.0" encoding="UTF-8"?> <svg xmlns="http://www.w3.org/2000/svg" id="Layer_1" data-name="Layer 1" viewBox="0 0 399.13 108.11"><defs><style>.cls-1{fill:#85C951;}</style></defs><title>Teachaway_Logo_White_EPS</title><path class="cls-1" d="M74.75,111.09a19.1,19.1,0,0,1-2,.08,3.18,3.18,0,0,1-2.46-1,4.7,4.7,0,0,1-.91-3.24V87.69h7.1V78.61h-7.1l-0.3-16.42L56.33,76.32v2.29h-5.9v9.08h5.9V107q0,7.49,3.34,10.94t9.82,3.45a34.46,34.46,0,0,0,4.11-.21,37.67,37.67,0,0,0,3.92-.72l-0.93-9.7Q75.46,111,74.75,111.09Z" transform="translate(-50.43 -31.61)"></path><path class="cls-1" d="M235.36,78.48a11.9,11.9,0,0,0-6,1.57,13.89,13.89,0,0,0-4.64,4.4l0.09-22.86L218.19,69l-6.68,7.52,0.06,44.71h13.12V90.7A6.35,6.35,0,0,1,227,89.13a8.81,8.81,0,0,1,3.3-.56,5.34,5.34,0,0,1,4.44,1.82q1.46,1.82,1.46,6.64v24.22h13.12V97.1q0-9.55-3.73-14.09A12.53,12.53,0,0,0,235.36,78.48Z" transform="translate(-50.43 -31.61)"></path><polygon class="cls-1" points="152.49 0 155.92 10.44 148.28 17.77 182.96 6.36 167.72 3.18 152.49 0"></polygon><polygon class="cls-1" points="162.21 29.57 172.58 17.97 182.96 6.36 158.78 19.13 162.21 29.57"></polygon><path class="cls-1" d="M102,81.08c-12.29,0-20.69,8.1-20.69,20.39,0,12.07,8.1,20.17,21.06,20.17,7.29,0,13.25-2.58,17.3-7L113,108.1a13.4,13.4,0,0,1-9.5,4c-4.71,0-8.1-2.65-9.35-7.36H122C122.9,90.28,116,81.08,102,81.08ZM93.9,97.94c0.81-4.79,3.83-8,8.25-8s7.66,3.17,7.66,8H93.9Z" transform="translate(-50.43 -31.61)"></path><path class="cls-1" d="M146.29,80.93c-6.63,0-12.22,1.62-18.41,4.49l3.61,8.39a27.9,27.9,0,0,1,11.85-3.31c5.15,0,7.73,2.36,7.73,6.26v0.59H140.62c-9.87.07-15.24,4.49-15.24,12,0,7.29,5.15,12.44,13.62,12.44,5.37,0,9.57-1.77,12.15-5.15v4.56h12.44V95.28C163.52,86.3,157.18,80.93,146.29,80.93Zm4.79,26.8c-0.81,3.24-4.2,5.45-8.17,5.45-3.53,0-5.6-1.84-5.6-4.71s1.91-4.27,5.74-4.27h8v3.53Z" transform="translate(-50.43 -31.61)"></path><path class="cls-1" d="M190.36,111.48c-4.93,0-8.32-4-8.32-10.09s3.39-10,8.32-10a9.51,9.51,0,0,1,8,4.12L207.52,90c-3.46-5.67-9.79-8.91-17.67-8.91-12.29,0-20.61,8.17-20.61,20.39s8.25,20.17,20.47,20.17c8.39,0,14.8-3.39,18-9.2L198.46,107A8.68,8.68,0,0,1,190.36,111.48Z" transform="translate(-50.43 -31.61)"></path><path class="cls-1" d="M277.17,80.93c-6.63,0-12.22,1.62-18.41,4.49l3.61,8.39a27.9,27.9,0,0,1,11.85-3.31c5.15,0,7.73,2.36,7.73,6.26v0.59H271.5c-9.87.07-15.24,4.49-15.24,12,0,7.29,5.15,12.44,13.62,12.44,5.37,0,9.57-1.77,12.15-5.15v4.56h12.44V95.28C294.4,86.3,288.07,80.93,277.17,80.93Zm4.79,26.8c-0.81,3.24-4.2,5.45-8.17,5.45-3.53,0-5.6-1.84-5.6-4.71s1.91-4.27,5.74-4.27h8v3.53Z" transform="translate(-50.43 -31.61)"></path><polygon class="cls-1" points="295.32 77.37 287.15 49.91 275 49.91 267.05 77.37 258.88 49.91 245.92 49.91 260.42 89.59 273.08 89.59 280.89 64.41 288.69 89.59 301.28 89.59 315.79 49.91 303.34 49.91 295.32 77.37"></polygon><path class="cls-1" d="M387.85,80.93c-6.63,0-12.22,1.62-18.41,4.49l3.61,8.39a27.9,27.9,0,0,1,11.85-3.31c5.15,0,7.73,2.36,7.73,6.26v0.59H382.18c-9.87.07-15.24,4.49-15.24,12,0,7.29,5.15,12.44,13.62,12.44,5.37,0,9.57-1.77,12.15-5.15v4.56h12.44V95.28C405.08,86.3,398.75,80.93,387.85,80.93Zm4.79,26.8c-0.81,3.24-4.2,5.45-8.17,5.45-3.53,0-5.6-1.84-5.6-4.71s1.91-4.27,5.74-4.27h8v3.53Z" transform="translate(-50.43 -31.61)"></path><path class="cls-1" d="M449.54,105.55l0-25.62H436.38V110.5a6.36,6.36,0,0,1-2.33,1.57,8.81,8.81,0,0,1-3.3.56,5.35,5.35,0,0,1-4.45-1.83q-1.46-1.83-1.46-6.64V79.93H411.71v24.16q0,9.56,3.73,14.1a11.92,11.92,0,0,0,6.78,4.16h0c5.24,1.91,14.89-1.32,14.89-1.32l0,2.83c0,3.9-2.58,6.26-7.73,6.26a27.9,27.9,0,0,1-11.85-3.31l-3.61,8.39c6.18,2.87,11.78,4.49,18.41,4.49,10.9,0,17.23-5.37,17.3-14.36V105.5Z" transform="translate(-50.43 -31.61)"></path></svg> 